HIERARCHY
ROOT Hips
{
  OFFSET 0 96 0
  CHANNELS 6 Xposition Yposition Zposition Zrotation Xrotation Yrotation
  JOINT Spine
  {
    OFFSET 0 18 0
    CHANNELS 3 Zrotation Xrotation Yrotation
    JOINT Spine1
    {
      OFFSET 0 16 0
      CHANNELS 3 Zrotation Xrotation Yrotation
      JOINT Neck
      {
        OFFSET 0 14 0
        CHANNELS 3 Zrotation Xrotation Yrotation
        JOINT Head
        {
          OFFSET 0 12 0
          CHANNELS 3 Zrotation Xrotation Yrotation
          End Site
          {
            OFFSET 0 10 0
          }
        }
      }
      JOINT LeftShoulder
      {
        OFFSET 7 12 0
        CHANNELS 3 Zrotation Xrotation Yrotation
        JOINT LeftArm
        {
          OFFSET 14 0 0
          CHANNELS 3 Zrotation Xrotation Yrotation
          JOINT LeftForeArm
          {
            OFFSET 26 0 0
            CHANNELS 3 Zrotation Xrotation Yrotation
            JOINT LeftHand
            {
              OFFSET 24 0 0
              CHANNELS 3 Zrotation Xrotation Yrotation
              End Site
              {
                OFFSET 10 0 0
              }
            }
          }
        }
      }
      JOINT RightShoulder
      {
        OFFSET -7 12 0
        CHANNELS 3 Zrotation Xrotation Yrotation
        JOINT RightArm
        {
          OFFSET -14 0 0
          CHANNELS 3 Zrotation Xrotation Yrotation
          JOINT RightForeArm
          {
            OFFSET -26 0 0
            CHANNELS 3 Zrotation Xrotation Yrotation
            JOINT RightHand
            {
              OFFSET -24 0 0
              CHANNELS 3 Zrotation Xrotation Yrotation
              End Site
              {
                OFFSET -10 0 0
              }
            }
          }
        }
      }
    }
  }
  JOINT LeftUpLeg
  {
    OFFSET 9 -6 0
    CHANNELS 3 Zrotation Xrotation Yrotation
    JOINT LeftLeg
    {
      OFFSET 0 -42 0
      CHANNELS 3 Zrotation Xrotation Yrotation
      JOINT LeftFoot
      {
        OFFSET 0 -42 0
        CHANNELS 3 Zrotation Xrotation Yrotation
        End Site
        {
          OFFSET 0 -4 12
        }
      }
    }
  }
  JOINT RightUpLeg
  {
    OFFSET -9 -6 0
    CHANNELS 3 Zrotation Xrotation Yrotation
    JOINT RightLeg
    {
      OFFSET 0 -42 0
      CHANNELS 3 Zrotation Xrotation Yrotation
      JOINT RightFoot
      {
        OFFSET 0 -42 0
        CHANNELS 3 Zrotation Xrotation Yrotation
        End Site
        {
          OFFSET 0 -4 12
        }
      }
    }
  }
}
MOTION
Frames: 30
Frame Time: 0.0333333
0 -46.558632 -27.229163 0 4 0 0 7 0 0 3.15 0 0 -4.9 0 0 -1.75 0 6 0 10 0 -8 -88 150 6 0 0 12 0 6 0 -10 0 -8 88 -150 -6 0 0 -12 0 10 -96 0 0 112 0 0 -24 0 -10 -96 0 0 112 0 0 -24 0
0 -46.558632 -27.229163 0 4 0 0 7 0 0 3.15 0 0 -4.9 0 0 -1.75 0 6 0 10 0 -8 -88 150 6 0 0 12 0 6 0 -10 0 -8 88 -150 -6 0 0 -12 0 10 -96 0 0 112 0 0 -24 0 -10 -96 0 0 112 0 0 -24 0
0 -46.558632 -27.229163 0 4 0 0 7 0 0 3.15 0 0 -4.9 0 0 -1.75 0 6 0 10 0 -8 -88 150 6 0 0 12 0 6 0 -10 0 -8 88 -150 -6 0 0 -12 0 10 -96 0 0 112 0 0 -24 0 -10 -96 0 0 112 0 0 -24 0
0 -46.558632 -27.229163 0 4 0 0 7 0 0 3.15 0 0 -4.9 0 0 -1.75 0 6 0 10 0 -8 -88 150 6 0 0 12 0 6 0 -10 0 -8 88 -150 -6 0 0 -12 0 10 -96 0 0 112 0 0 -24 0 -10 -96 0 0 112 0 0 -24 0
0 -46.558632 -27.229163 0 4 0 0 7 0 0 3.15 0 0 -4.9 0 0 -1.75 0 6 0 10 0 -8 -88 150 6 0 0 12 0 6 0 -10 0 -8 88 -150 -6 0 0 -12 0 10 -96 0 0 112 0 0 -24 0 -10 -96 0 0 112 0 0 -24 0
0 -46.558632 -27.229163 0 4 0 0 7 0 0 3.15 0 0 -4.9 0 0 -1.75 0 6 0 10 0 -8 -88 150 6 0 0 12 0 6 0 -10 0 -8 88 -150 -6 0 0 -12 0 10 -96 0 0 112 0 0 -24 0 -10 -96 0 0 112 0 0 -24 0
0 -46.558632 -27.229163 0 4 0 0 7 0 0 3.15 0 0 -4.9 0 0 -1.75 0 6 0 10 0 -8 -88 150 6 0 0 12 0 6 0 -10 0 -8 88 -150 -6 0 0 -12 0 10 -96 0 0 112 0 0 -24 0 -10 -96 0 0 112 0 0 -24 0
0 -46.558632 -27.229163 0 4 0 0 7 0 0 3.15 0 0 -4.9 0 0 -1.75 0 6 0 10 0 -8 -88 150 6 0 0 12 0 6 0 -10 0 -8 88 -150 -6 0 0 -12 0 10 -96 0 0 112 0 0 -24 0 -10 -96 0 0 112 0 0 -24 0
0 -46.558632 -27.229163 0 4 0 0 7 0 0 3.15 0 0 -4.9 0 0 -1.75 0 6 0 10 0 -8 -88 150 6 0 0 12 0 6 0 -10 0 -8 88 -150 -6 0 0 -12 0 10 -96 0 0 112 0 0 -24 0 -10 -96 0 0 112 0 0 -24 0
0 -46.558632 -27.229163 0 4 0 0 7 0 0 3.15 0 0 -4.9 0 0 -1.75 0 6 0 10 0 -8 -88 150 6 0 0 12 0 6 0 -10 0 -8 88 -150 -6 0 0 -12 0 10 -96 0 0 112 0 0 -24 0 -10 -96 0 0 112 0 0 -24 0
0 -46.547378 -27.231728 0 3.999378 0 0 6.998912 0 0 3.14951 0 0 -4.899238 0 0 -1.749728 0 6 0 10 0 -8 -88 150 6 0 0 12 0 6 0 -10 0 -8 88 -150 -6 0 0 -12 0 9.998446 -95.985081 0 0 111.982594 0 0 -23.99627 0 -9.998446 -95.985081 0 0 111.982594 0 0 -23.99627 0
0 -46.420843 -27.260385 0 3.992389 0 0 6.986681 0 0 3.144007 0 0 -4.890677 0 0 -1.74667 0 6 0 10 0 -8 -88 150 6 0 0 12 0 6 0 -10 0 -8 88 -150 -6 0 0 -12 0 9.980973 -95.817346 0 0 111.786903 0 0 -23.954336 0 -9.980973 -95.817346 0 0 111.786903 0 0 -23.954336 0
0 -46.154182 -27.319709 0 3.977662 0 0 6.960908 0 0 3.132409 0 0 -4.872636 0 0 -1.740227 0 6 0 10 0 -8 -88 150 6 0 0 12 0 6 0 -10 0 -8 88 -150 -6 0 0 -12 0 9.944154 -95.46388 0 0 111.374526 0 0 -23.86597 0 -9.944154 -95.46388 0 0 111.374526 0 0 -23.86597 0
0 -45.74841 -27.407198 0 3.955252 0 0 6.921692 0 0 3.114761 0 0 -4.845184 0 0 -1.730423 0 6 0 10 0 -8 -88 150 6 0 0 12 0 6 0 -10 0 -8 88 -150 -6 0 0 -12 0 9.888131 -94.926056 0 0 110.747065 0 0 -23.731514 0 -9.888131 -94.926056 0 0 110.747065 0 0 -23.731514 0
0 -45.205119 -27.519091 0 3.925248 0 0 6.869185 0 0 3.091133 0 0 -4.808429 0 0 -1.717296 0 6 0 10 0 -8 -88 150 6 0 0 12 0 6 0 -10 0 -8 88 -150 -6 0 0 -12 0 9.813121 -94.205964 0 0 109.906958 0 0 -23.551491 0 -9.813121 -94.205964 0 0 109.906958 0 0 -23.551491 0
0 -44.526522 -27.650431 0 3.887767 0 0 6.803592 0 0 3.061616 0 0 -4.762514 0 0 -1.700898 0 6 0 10 0 -8 -88 150 6 0 0 12 0 6 0 -10 0 -8 88 -150 -6 0 0 -12 0 9.719417 -93.3064 0 0 108.857466 0 0 -23.3266 0 -9.719417 -93.3064 0 0 108.857466 0 0 -23.3266 0
0 -43.715513 -27.795158 0 3.842952 0 0 6.725167 0 0 3.026325 0 0 -4.707617 0 0 -1.681292 0 6 0 10 0 -8 -88 150 6 0 0 12 0 6 0 -10 0 -8 88 -150 -6 0 0 -12 0 9.607381 -92.230858 0 0 107.602668 0 0 -23.057715 0 -9.607381 -92.230858 0 0 107.602668 0 0 -23.057715 0
0 -42.775732 -27.946223 0 3.79098 0 0 6.634215 0 0 2.985397 0 0 -4.64395 0 0 -1.658554 0 6 0 10 0 -8 -88 150 6 0 0 12 0 6 0 -10 0 -8 88 -150 -6 0 0 -12 0 9.47745 -90.983516 0 0 106.147436 0 0 -22.745879 0 -9.47745 -90.983516 0 0 106.147436 0 0 -22.745879 0
0 -41.711641 -28.095724 0 3.732051 0 0 6.531089 0 0 2.93899 0 0 -4.571762 0 0 -1.632772 0 6 0 10 0 -8 -88 150 6 0 0 12 0 6 0 -10 0 -8 88 -150 -6 0 0 -12 0 9.330127 -89.569219 0 0 104.497423 0 0 -22.392305 0 -9.330127 -89.569219 0 0 104.497423 0 0 -22.392305 0
0 -40.528591 -28.235064 0 3.666394 0 0 6.41619 0 0 2.887285 0 0 -4.491333 0 0 -1.604047 0 6 0 10 0 -8 -88 150 6 0 0 12 0 6 0 -10 0 -8 88 -150 -6 0 0 -12 0 9.165985 -87.993461 0 0 102.659037 0 0 -21.998365 0 -9.165985 -87.993461 0 0 102.659037 0 0 -21.998365 0
0 -39.232884 -28.355132 0 3.594265 0 0 6.289964 0 0 2.830484 0 0 -4.402975 0 0 -1.572491 0 6 0 10 0 -8 -88 150 6 0 0 12 0 6 0 -10 0 -8 88 -150 -6 0 0 -12 0 8.985663 -86.26236 0 0 100.63942 0 0 -21.56559 0 -8.985663 -86.26236 0 0 100.63942 0 0 -21.56559 0
0 -37.831829 -28.446497 0 3.515943 0 0 6.152901 0 0 2.768805 0 0 -4.307031 0 0 -1.538225 0 6 0 10 0 -8 -88 150 6 0 0 12 0 6 0 -10 0 -8 88 -150 -6 0 0 -12 0 8.789859 -84.382643 0 0 98.446416 0 0 -21.095661 0 -8.789859 -84.382643 0 0 98.446416 0 0 -21.095661 0
0 -36.333771 -28.499623 0 3.431734 0 0 6.005534 0 0 2.70249 0 0 -4.203874 0 0 -1.501383 0 6 0 10 0 -8 -88 150 6 0 0 12 0 6 0 -10 0 -8 88 -150 -6 0 0 -12 0 8.579334 -82.361609 0 0 96.088544 0 0 -20.590402 0 -8.579334 -82.361609 0 0 96.088544 0 0 -20.590402 0
0 -34.748107 -28.505089 0 3.341963 0 0 5.848435 0 0 2.631796 0 0 -4.093904 0 0 -1.462109 0 6 0 10 0 -8 -88 150 6 0 0 12 0 6 0 -10 0 -8 88 -150 -6 0 0 -12 0 8.354907 -80.207109 0 0 93.57496 0 0 -20.051777 0 -8.354907 -80.207109 0 0 93.57496 0 0 -20.051777 0
0 -33.085266 -28.453822 0 3.24698 0 0 5.682214 0 0 2.556996 0 0 -3.97755 0 0 -1.420554 0 6 0 10 0 -8 -88 150 6 0 0 12 0 6 0 -10 0 -8 88 -150 -6 0 0 -12 0 8.117449 -77.92751 0 0 90.915429 0 0 -19.481878 0 -8.117449 -77.92751 0 0 90.915429 0 0 -19.481878 0
0 -31.356663 -28.337324 0 3.147153 0 0 5.507518 0 0 2.478383 0 0 -3.855262 0 0 -1.376879 0 6 0 10 0 -8 -88 150 6 0 0 12 0 6 0 -10 0 -8 88 -150 -6 0 0 -12 0 7.867882 -75.531669 0 0 88.12028 0 0 -18.882917 0 -7.867882 -75.531669 0 0 88.12028 0 0 -18.882917 0
0 -29.574618 -28.147895 0 3.04287 0 0 5.325023 0 0 2.39626 0 0 -3.727516 0 0 -1.331256 0 6 0 10 0 -8 -88 150 6 0 0 12 0 6 0 -10 0 -8 88 -150 -6 0 0 -12 0 7.607176 -73.02889 0 0 85.200371 0 0 -18.257222 0 -7.607176 -73.02889 0 0 85.200371 0 0 -18.257222 0
0 -27.752238 -27.878852 0 2.934537 0 0 5.13544 0 0 2.310948 0 0 -3.594808 0 0 -1.28386 0 6 0 10 0 -8 -88 150 6 0 0 12 0 6 0 -10 0 -8 88 -150 -6 0 0 -12 0 7.336343 -70.428894 0 0 82.167043 0 0 -17.607224 0 -7.336343 -70.428894 0 0 82.167043 0 0 -17.607224 0
0 -25.903271 -27.524715 0 2.822574 0 0 4.939505 0 0 2.222777 0 0 -3.457653 0 0 -1.234876 0 6 0 10 0 -8 -88 150 6 0 0 12 0 6 0 -10 0 -8 88 -150 -6 0 0 -12 0 7.056436 -67.741781 0 0 79.032078 0 0 -16.935445 0 -7.056436 -67.741781 0 0 79.032078 0 0 -16.935445 0
0 -24.041916 -27.081381 0 2.707416 0 0 4.737978 0 0 2.13209 0 0 -3.316585 0 0 -1.184495 0 6 0 10 0 -8 -88 150 6 0 0 12 0 6 0 -10 0 -8 88 -150 -6 0 0 -12 0 6.76854 -64.977987 0 0 75.807652 0 0 -16.244497 0 -6.76854 -64.977987 0 0 75.807652 0 0 -16.244497 0
